Coordinates
version=1
nRows=14
nColumns=42
inDegrees=yes

Units are S.I. units (second, meters, Newtons, ...)
If the header above contains a line with 'inDegrees', this indicates whether rotational values are in degrees (yes) or radians (no).

endheader
time	pelvis_tilt	pelvis_list	pelvis_rotation	pelvis_tx	pelvis_ty	pelvis_tz	hip_flexion_r	hip_adduction_r	hip_rotation_r	knee_angle_r	knee_adduction_r	knee_angle_r_beta	ankle_angle_r	subtalar_angle_r	mtp_angle_r	hip_flexion_l	hip_adduction_l	hip_rotation_l	knee_angle_l	knee_adduction_l	knee_angle_l_beta	ankle_angle_l	subtalar_angle_l	mtp_angle_l	lumbar_extension	lumbar_bending	lumbar_rotation	arm_flex_r	arm_add_r	arm_rot_r	elbow_flex_r	pro_sup_r	wrist_flex_r	wrist_dev_r	arm_flex_l	arm_add_l	arm_rot_l	elbow_flex_l	pro_sup_l	wrist_flex_l	wrist_dev_l
      1.77000000	     14.30989974	     -4.26298363	      3.00016524	     -0.30977671	      0.87979164	      0.16268188	      8.75629170	      4.65544874	    -30.58438621	     26.71564274	     -7.99282559	      0.46627593	     16.10238637	     37.54383663	     -7.51712121	    -25.56820364	     -5.07002441	    -16.37031172	     40.37458921	    -12.85853567	      0.70466952	     11.37469431	     29.07435526	     -7.51712121	    -38.31926319	      8.95282109	     -2.36884219	      2.09329199	    -15.17072260	      2.15374417	     42.98439517	     90.00000001	      0.00000000	      0.00000000	     17.83632137	    -14.84052238	      0.96481516	     57.19230492	     90.00000001	      0.00000000	      0.00000000
      1.78000000	     14.34399272	     -4.69430395	      3.26878644	     -0.29694526	      0.88234498	      0.16424596	      7.29909775	      5.45451116	    -30.99707284	     25.69424481	     -7.92379749	      0.44844917	     16.64381087	     37.79263456	     -7.51669125	    -23.79221153	     -5.97736583	    -16.78938504	     43.37794426	    -13.76365457	      0.75708795	     11.37992846	     28.73504767	     -7.51669125	    -38.41038782	      9.37054802	     -2.15119713	      2.34792955	    -15.20824741	      2.24931843	     43.19920384	     90.00000001	      0.00000000	      0.00000000	     17.25803984	    -14.69154109	      1.14021742	     56.85577268	     90.00000001	      0.00000000	      0.00000000
      1.79000000	     14.40252612	     -4.84197690	      3.61015037	     -0.28441690	      0.88498805	      0.16524508	      5.76090574	      5.83967199	    -31.33086120	     24.68092935	     -7.61027971	      0.43076348	     17.15047308	     38.05764377	     -7.51632143	    -21.92526709	     -6.43327523	    -17.06053516	     46.02947025	    -14.88128917	      0.80336581	     11.65452027	     28.37153627	     -7.51632143	    -38.54412516	      9.58718287	     -2.15001971	      2.60177144	    -15.22370497	      2.29884968	     43.53795455	     90.00000001	      0.00000000	      0.00000000	     16.73804635	    -14.57881982	      1.31713254	     56.42061154	     90.00000001	      0.00000000	      0.00000000
      1.80000000	     14.42829321	     -4.91210950	      3.97946410	     -0.27217913	      0.88749119	      0.16631495	      4.31365514	      6.21528753	    -31.74018923	     23.65095389	     -7.44257935	      0.41278702	     17.48301990	     38.26950929	     -7.51579568	    -19.89014599	     -6.84724875	    -17.28441052	     48.53727413	    -15.85656791	      0.84713524	     12.31545754	     27.95779728	     -7.51579568	    -38.66789387	      9.70706534	     -2.14888385	      2.84696917	    -15.20766071	      2.34561025	     43.93402726	     90.00000001	      0.00000000	      0.00000000	     16.28101252	    -14.50339038	      1.54787106	     55.92791306	     90.00000001	      0.00000000	      0.00000000
      1.81000000	     14.67363845	     -4.45235075	      4.10809556	     -0.26013635	      0.89045528	      0.16717605	      2.66031261	      5.92979822	    -31.71824954	     22.90705072	     -7.09925786	      0.39980346	     17.88640342	     38.16535373	     -7.51561168	    -18.23429235	     -6.42575128	    -17.49613341	     50.31533231	    -16.75967719	      0.87816821	     12.70843443	     27.55522783	     -7.51561168	    -39.09222988	      9.20462495	     -2.19924939	      3.14245598	    -15.14796632	      2.37808630	     44.29599755	     90.00000001	      0.00000000	      0.00000000	     15.91765078	    -14.40724611	      1.61532502	     55.52138635	     90.00000001	      0.00000000	      0.00000000
      1.82000000	     14.54037034	     -4.56382145	      4.80922433	     -0.24811438	      0.89239778	      0.16778468	      1.37622079	      6.39216845	    -32.26849972	     21.76295753	     -6.88910088	      0.37983526	     18.43854254	     38.50706756	     -7.51516233	    -15.74823306	     -6.87036144	    -17.46735405	     52.47545145	    -17.70295668	      0.91586940	     13.92558933	     26.58976548	     -7.51516233	    -38.98988101	      9.53691158	     -2.41539775	      3.30055677	    -15.15772756	      2.46410472	     44.92054636	     90.00000001	      0.00000000	      0.00000000	     15.46014916	    -14.37514439	      1.93483538	     54.79013074	     90.00000001	      0.00000000	      0.00000000
      1.83000000	     14.66023494	     -4.07152846	      5.08093808	     -0.23626034	      0.89484404	      0.16843699	     -0.12074531	      6.09832560	    -32.17202708	     21.00943942	     -6.49648061	      0.36668389	     18.86064716	     38.46862085	     -7.51496064	    -13.80711771	     -6.35064462	    -17.59901988	     53.79327027	    -18.48395697	      0.93886968	     14.56056387	     26.04640024	     -7.51496064	    -39.25001490	      9.07023805	     -2.60068105	      3.56320233	    -15.08698230	      2.51260883	     45.39029591	     90.00000001	      0.00000000	      0.00000000	     15.06177749	    -14.35340454	      2.01437690	     54.28045687	     90.00000001	      0.00000000	      0.00000000
      1.84000000	     14.54877638	     -3.85931849	      5.62683039	     -0.22458918	      0.89662493	      0.16896364	     -1.29502346	      6.19158275	    -32.39155509	     20.18180796	     -6.28892825	      0.35223900	     19.39359508	     38.57873245	     -7.51435555	    -11.43413766	     -6.22774437	    -17.18965409	     55.21203057	    -18.82409948	      0.96363172	     15.86993796	     24.61938893	     -7.51435555	    -39.24485603	      9.00514882	     -2.78123733	      3.70065055	    -15.14504334	      2.68914957	     46.09010585	     90.00000001	      0.00000000	      0.00000000	     14.69864401	    -14.31322440	      2.29201828	     53.54260236	     90.00000001	      0.00000000	      0.00000000
      1.85000000	     14.58291500	     -3.43619990	      5.94974133	     -0.21272168	      0.89848329	      0.16952339	     -2.65349067	      5.99831325	    -32.25221427	     19.47561858	     -5.92110932	      0.33991367	     19.95480017	     38.56264812	     -7.51407757	     -9.42015880	     -5.70779823	    -17.22599881	     55.93570223	    -19.29173559	      0.97626217	     16.79565435	     23.83669801	     -7.51407757	    -39.39304759	      8.63936106	     -2.93132317	      3.89891248	    -15.14663501	      2.78731363	     46.67791229	     90.00000001	      0.00000000	      0.00000000	     14.25295882	    -14.26306771	      2.35939169	     52.94001046	     90.00000001	      0.00000000	      0.00000000
      1.86000000	     14.56334934	     -3.04221679	      6.21695919	     -0.20093148	      0.90002978	      0.17012550	     -3.91510001	      5.85196920	    -31.96478242	     18.80112715	     -5.58013067	      0.32814157	     20.49362596	     38.51678787	     -7.51384880	     -7.38782066	     -5.18549268	    -17.19508582	     56.38575351	    -19.51681210	      0.98411705	     17.73828608	     23.07249726	     -7.51384880	    -39.49803161	      8.27437350	     -3.02414127	      4.09291421	    -15.21266643	      2.90429434	     47.33713439	     90.00000001	      0.00000000	      0.00000000	     13.77594000	    -14.21982072	      2.41878107	     52.35820177	     90.00000001	      0.00000000	      0.00000000
      1.87000000	     14.55731149	     -2.71947616	      6.42650993	     -0.18911118	      0.90132729	      0.17081929	     -5.17104149	      5.80260663	    -31.60972534	     18.13153749	     -5.27645629	      0.31645503	     21.07679502	     38.47995033	     -7.51362111	     -5.44801599	     -4.72480606	    -17.10529660	     56.54151083	    -19.50447884	      0.98683553	     18.79567709	     22.19466558	     -7.51362111	    -39.61102768	      7.94768233	     -3.00024172	      4.24615135	    -15.33919126	      3.07177950	     48.07441299	     90.00000001	      0.00000000	      0.00000000	     13.28942112	    -14.15572457	      2.46814901	     51.75760650	     90.00000001	      0.00000000	      0.00000000
      1.88000000	     14.67201501	     -2.45209067	      6.52098579	     -0.17709493	      0.90252772	      0.17174574	     -6.58631006	      5.84546210	    -31.11428446	     17.39324047	     -4.97130455	      0.30356931	     21.56900627	     38.35453854	     -7.51309544	     -3.80333839	     -4.36210431	    -16.66700880	     56.42040215	    -18.89649493	      0.98472178	     19.86317294	     20.68918218	     -7.51309544	    -39.83694810	      7.61454226	     -2.80175136	      4.29210816	    -15.62560268	      3.50266720	     49.04373685	     90.00000001	      0.00000000	      0.00000000	     12.79036079	    -14.09262648	      2.52808434	     51.14927226	     90.00000001	      0.00000000	      0.00000000
      1.89000000	     14.54794223	     -2.21442926	      6.47458862	     -0.16518529	      0.90313785	      0.17286285	     -7.60103097	      5.83210176	    -30.73254823	     16.91445826	     -4.75199802	      0.29521299	     21.93790147	     37.99217480	     -7.51292699	     -1.91526349	     -4.05131906	    -16.78861249	     55.97037969	    -18.48641065	      0.97686741	     20.38935178	     20.17285980	     -7.51292699	    -39.81850529	      7.21075024	     -2.60463730	      4.53771225	    -15.71876372	      3.54749378	     49.58153578	     90.00000001	      0.00000000	      0.00000000	     12.11765492	    -14.07397999	      2.54403116	     50.74327503	     90.00000001	      0.00000000	      0.00000000
      1.90000000	     14.70520785	     -2.03509677	      6.50638009	     -0.15306803	      0.90378641	      0.17366961	     -9.11428464	      6.03224371	    -29.94222724	     15.99277686	     -4.52988699	      0.27912661	     22.74437393	     38.27910073	     -7.51271637	     -0.45198503	     -3.66288745	    -16.77243927	     55.14394520	    -18.22171358	      0.96244341	     21.63098249	     19.23414482	     -7.51271637	    -40.06470829	      6.96682778	     -2.28800893	      4.60283428	    -16.01844632	      3.75196120	     50.52295996	     90.00000001	      0.00000000	      0.00000000	     11.58599284	    -13.94022350	      2.54083825	     50.08828698	     90.00000001	      0.00000000	      0.00000000
